<?xml version="1.0" encoding="UTF-8"?>
<svg width="126px" height="161px" viewBox="0 0 126 161" version="1.1" xmlns="http://www.w3.org/2000/svg" xmlns:xlink="http://www.w3.org/1999/xlink">
    <!-- Generator: Sketch 52.2 (67145) - http://www.bohemiancoding.com/sketch -->
    <title>Group</title>
    <desc>Created with Sketch.</desc>
    <g id="Page-1" stroke="none" stroke-width="1" fill="none" fill-rule="evenodd">
        <g id="Group" fill="#FFFFFF">
            <path d="M36.4,39.8 C35.9,40.2 34.3,41.2 31.8,41.2 C27.3,41.2 24.3,38.4 24.3,34.1 C24.3,29.8 27.5,27 31.9,27 C33.6,27 35.6,27.5 36.7,28 C36.5,28.5 36.3,29.2 36.2,29.6 L36.1,29.6 C35.3,28.7 33.9,27.9 31.9,27.9 C29.3,27.9 26.4,30 26.4,34.1 C26.4,38.1 29.4,40.2 32.1,40.2 C34.5,40.2 35.7,39.1 36.7,38.2 L36.8,38.3 L36.4,39.8 Z M47.5,40.2 L47.5,39.4 C46.1,39.5 42.4,39.6 41,39.7 C41,39.3 40.9,35 41,34.4 C41.6,34.4 44.7,34.4 46,34.6 C46,34.4 45.9,34.1 45.9,33.9 C45.9,33.7 45.9,33.3 46,33.1 C44.8,33.2 43.3,33.3 41,33.3 C41,32.8 41,29.2 41.1,28.3 C43.7,28.3 46,28.5 47.3,28.6 L47.3,27.2 C46.6,27.2 44.4,27.3 43.2,27.3 C42,27.3 40.2,27.3 39,27.2 C39.1,28.9 39.2,30.6 39.2,32.3 L39.2,35.7 C39.2,37.4 39.1,39.1 39,40.9 C40.2,40.8 42.1,40.8 43.3,40.8 L45,40.8 C45.9,40.8 46.9,40.8 47.6,40.9 C47.5,40.7 47.5,40.5 47.5,40.2 Z M52,34.2 L52,35.8 C52,37.5 52.1,39.2 52.2,41 C51.9,40.9 51.2,40.9 51.1,40.9 C51,40.9 50.4,40.9 50,41 C50.1,39.3 50.2,37.6 50.2,35.8 L50.2,32.4 C50.2,30.7 50.1,29 50,27.2 C50.8,27.3 51.7,27.3 52.5,27.3 C53.3,27.3 54,27.2 54.8,27.2 C57,27.2 59.1,27.9 59.1,30.4 C59.1,33 56.5,34 54.9,34.2 C55.9,35.4 59.4,39.7 60.5,41 C60.1,40.9 59.4,40.9 59.3,40.9 C59.1,40.9 58.4,40.9 58.1,41 C57.3,39.8 54.8,36 53.1,34.3 C52.9,34.2 52,34.2 52,34.2 Z M53.3,33.5 C54.9,33.5 57.1,32.9 57.1,30.7 C57.1,28.7 55.4,28.1 54,28.1 C53.1,28.1 52.5,28.2 52.1,28.2 C52,29.7 52,31 52,32.4 L52,33.5 L53.3,33.5 Z M74.5,27.2 C74.3,27.2 74,27.3 73.6,27.3 C73.3,27.3 73,27.3 72.8,27.2 C72.9,28.8 73,31.8 73,33.8 L73,37.3 C72.3,36.5 64,27.9 63.1,27 L62.4,27 C62.4,28.3 62.5,29.6 62.5,32.1 C62.5,35.3 62.5,38.7 62.3,40.8 C62.5,40.8 62.8,40.7 63.2,40.7 C63.5,40.7 63.8,40.7 64,40.8 C63.9,39.2 63.8,36.2 63.8,34.2 L63.8,30.4 C64.5,31.2 72.9,39.9 73.7,41 L74.4,41 C74.4,39.7 74.3,38.3 74.3,35.8 C74.3,32.7 74.3,29.3 74.5,27.2 Z M38.2,63 C34.3,56.8 33.2,50.8 33,46.3 L31.2,46.3 C31.4,51.3 32.6,56.5 35.3,61.6 C36,62.2 37.5,62.8 38.2,63 Z" id="Shape" fill-rule="nonzero"></path>
            <path d="M111.3,1.3 C111.3,1.3 66.3,0.9 52,1 C49.8,1 48.2,1.2 47.8,1.2 C30.1,2.3 16.8,17.9 16.7,34.8 C16.7,39.7 18,45.3 20.1,52.8 C22.9,62.7 26.2,74 26.2,74 L28,74 L21.4,51.6 L21.5,51.6 C26.4,61 37.6,68.6 50.4,68.6 C57.3,68.6 63.7,66.7 68.7,63.1 L39.2,94.5 L41.5,94.5 C41.5,94.5 62.2,72.4 69.3,64.9 C74.7,59.2 77.5,55.5 78.7,53.5 C80,51.3 84.3,45 84.2,35.6 L84.3,35.6 L97,94.6 L98.9,94.6 C98.9,94.6 88,46.5 85.9,36.4 C83.8,26.5 81.4,20.3 78.7,16.8 C77.8,16.3 76.4,15.7 75.7,15.6 C79.5,20.4 82.4,27.6 82.4,34.9 C82.4,52.5 68,66.9 50.4,66.9 C32.8,66.9 18.4,52.5 18.4,34.9 C18.4,17.3 32.8,2.9 50.4,2.9 C58.2,2.9 65.5,5.8 71,10.5 C72.1,10.6 73.5,11 74.4,11.3 C70.4,7.3 65.4,4.3 59.8,2.8 L111.1,3.1 L111.3,1.3 Z" id="Path"></path>
            <path d="M42.7,68.7 C41.6,68.5 40.1,68.1 39.3,67.8 C43.2,72.2 48.5,75.7 53.7,77.7 L55.1,76.3 C49.4,74.3 45.3,71.2 42.7,68.7 Z M89.8,66.2 C84.1,73.2 75.2,77.9 65,77.9 C62.8,77.9 60.7,77.7 58.9,77.3 L57.4,78.9 C60.2,79.5 62.7,79.8 65,79.8 C75.5,79.8 84.4,74.9 90.1,68.5 L89.8,66.2 Z M101.7,9.4 L98.6,41.2 L98.5,41.2 C98.1,35.2 95.1,28 91.4,23.5 C85,15.6 75.6,10.9 65,10.9 C54.9,10.9 45.9,15.4 39.7,22.4 L41.1,23.5 C46.9,16.9 55.3,12.7 64.9,12.7 C76.6,12.7 86.2,18.7 91.5,26.9 C96.3,34.2 97.9,43.5 96.7,50.4 C96.3,52.7 95.5,57.2 92.4,62.3 L92.9,64.7 C96.7,58.8 98.6,53.6 100.1,40.3 C101.2,30.1 103.2,9.5 103.2,9.5 L101.7,9.4 Z M3.1,150.2 C3.4,150.8 3.8,151.3 4.3,151.7 C4.8,152.1 5.4,152.3 6,152.5 C6.6,152.6 7.3,152.7 8,152.7 C8.5,152.7 9,152.6 9.6,152.5 C10.2,152.4 10.7,152.2 11.1,151.9 C11.6,151.6 11.9,151.3 12.3,150.8 C12.6,150.4 12.8,149.8 12.8,149.2 C12.8,148.6 12.6,148 12.3,147.6 C12,147.2 11.6,146.8 11.1,146.5 C10.6,146.2 10.1,145.9 9.5,145.7 C8.9,145.5 8.3,145.2 7.7,145 C7.1,144.8 6.5,144.5 5.9,144.2 C5.3,143.9 4.7,143.6 4.3,143.2 C3.8,142.8 3.4,142.3 3.1,141.8 C2.8,141.3 2.7,140.6 2.7,139.8 C2.7,138.9 2.9,138.1 3.4,137.4 C3.8,136.8 4.4,136.2 5.1,135.8 C5.8,135.4 6.5,135.1 7.4,134.9 C8.2,134.7 9,134.6 9.8,134.6 C10.8,134.6 11.7,134.7 12.5,134.9 C13.3,135.1 14,135.5 14.6,136 C15.2,136.5 15.7,137.1 16,137.9 C16.3,138.7 16.5,139.6 16.5,140.7 L14.2,140.7 C14.2,140 14.2,139.3 13.9,138.8 C13.7,138.3 13.4,137.9 13,137.5 C12.6,137.2 12.1,136.9 11.6,136.7 C11,136.5 10.4,136.5 9.8,136.5 C9.3,136.5 8.8,136.5 8.2,136.6 C7.7,136.7 7.2,136.9 6.7,137.1 C6.2,137.3 5.9,137.7 5.6,138.1 C5.3,138.5 5.1,139.1 5.1,139.7 C5.1,140.1 5.2,140.5 5.4,140.9 C5.6,141.2 5.9,141.5 6.3,141.8 C6.7,142.1 7.1,142.3 7.6,142.5 C8.1,142.7 8.6,142.9 9.1,143.2 C9.8,143.5 10.4,143.7 11.2,144 C11.9,144.3 12.6,144.6 13.2,145 C13.8,145.4 14.3,145.9 14.7,146.5 C15.1,147.1 15.3,147.8 15.3,148.7 C15.3,149.8 15.1,150.7 14.6,151.4 C14.1,152.1 13.6,152.7 12.8,153.2 C12.1,153.7 11.3,154 10.3,154.2 C9.4,154.4 8.5,154.5 7.6,154.5 C6.7,154.5 5.8,154.4 4.9,154.1 C4,153.9 3.3,153.5 2.6,152.9 C1.9,152.4 1.4,151.7 1,150.8 C0.6,150 0.4,148.9 0.5,147.7 L2.8,147.7 C2.7,148.8 2.8,149.6 3.1,150.2 Z M30.6,154 L31.3,150.6 L31.2,150.6 C30.5,151.7 29.5,152.7 28.4,153.4 C27.2,154.2 25.9,154.5 24.5,154.5 C23.7,154.5 22.9,154.4 22.2,154.2 C21.5,154 20.9,153.7 20.4,153.3 C19.9,152.9 19.5,152.4 19.2,151.7 C18.9,151.1 18.8,150.3 18.8,149.4 C18.8,148.9 18.9,148.1 19.1,147.2 L21.7,135.1 L24,135.1 L21.4,147.3 C21.3,147.6 21.3,147.9 21.2,148.2 C21.2,148.5 21.1,148.9 21.1,149.2 C21.1,149.8 21.2,150.3 21.4,150.8 C21.6,151.2 21.9,151.6 22.3,151.9 C22.7,152.2 23.1,152.4 23.6,152.5 C24.1,152.6 24.6,152.7 25.1,152.7 C26,152.7 26.8,152.5 27.5,152.2 C28.3,151.8 29,151.3 29.6,150.6 C30.2,149.9 30.8,149.1 31.3,148.1 C31.8,147.1 32.2,146.1 32.4,144.9 L34.5,135.2 L36.8,135.2 L32.7,154.1 L30.6,154.1 L30.6,154 Z M43.6,135.2 L42.9,138.6 L43,138.6 C43.8,137.4 44.7,136.4 45.8,135.7 C46.9,135 48.2,134.7 49.9,134.7 C51.1,134.7 52.2,134.9 53.1,135.3 C54,135.7 54.7,136.2 55.3,136.9 C55.9,137.6 56.3,138.4 56.6,139.3 C56.9,140.3 57,141.3 57,142.4 C57,143.9 56.8,145.3 56.3,146.8 C55.8,148.3 55.1,149.6 54.2,150.7 C53.3,151.9 52.2,152.8 50.9,153.5 C49.6,154.2 48.2,154.6 46.6,154.6 C45.9,154.6 45.2,154.5 44.5,154.4 C43.8,154.2 43.2,154 42.7,153.6 C42.2,153.3 41.7,152.8 41.3,152.3 C40.9,151.8 40.7,151.1 40.6,150.3 L40.5,150.3 L38.2,161 L36,161 L41.5,135.2 L43.6,135.2 Z M46.1,137.6 C45.1,138.3 44.2,139.1 43.5,140.2 C42.8,141.2 42.3,142.4 41.9,143.6 C41.5,144.9 41.4,146.1 41.4,147.2 C41.4,148.9 41.9,150.2 42.8,151.2 C43.7,152.2 45,152.7 46.7,152.7 C48,152.7 49.2,152.4 50.2,151.7 C51.2,151 52.1,150.2 52.7,149.2 C53.4,148.2 53.9,147 54.2,145.8 C54.5,144.6 54.7,143.4 54.7,142.2 C54.7,140.6 54.3,139.2 53.5,138.2 C52.7,137.1 51.4,136.6 49.7,136.6 C48.3,136.6 47.1,136.9 46.1,137.6 Z M64.6,135.2 L63.9,138.6 L64,138.6 C64.8,137.4 65.7,136.4 66.8,135.7 C67.9,135 69.2,134.7 70.9,134.7 C72.1,134.7 73.2,134.9 74.1,135.3 C75,135.7 75.7,136.2 76.3,136.9 C76.9,137.6 77.3,138.4 77.6,139.3 C77.9,140.3 78,141.3 78,142.4 C78,143.9 77.8,145.3 77.3,146.8 C76.8,148.3 76.1,149.6 75.2,150.7 C74.3,151.9 73.2,152.8 71.9,153.5 C70.6,154.2 69.2,154.6 67.6,154.6 C66.9,154.6 66.2,154.5 65.5,154.4 C64.8,154.2 64.2,154 63.7,153.6 C63.2,153.3 62.7,152.8 62.3,152.3 C61.9,151.8 61.7,151.1 61.6,150.3 L61.5,150.3 L59.2,161 L57,161 L62.5,135.2 L64.6,135.2 Z M67.1,137.6 C66.1,138.3 65.2,139.1 64.5,140.2 C63.8,141.2 63.3,142.4 62.9,143.6 C62.5,144.9 62.4,146.1 62.4,147.2 C62.4,148.9 62.9,150.2 63.8,151.2 C64.7,152.2 66,152.7 67.7,152.7 C69,152.7 70.2,152.4 71.2,151.7 C72.2,151 73.1,150.2 73.7,149.2 C74.4,148.2 74.9,147 75.2,145.8 C75.5,144.6 75.7,143.4 75.7,142.2 C75.7,140.6 75.3,139.2 74.5,138.2 C73.7,137.1 72.4,136.6 70.7,136.6 C69.3,136.6 68.2,136.9 67.1,137.6 Z M87.2,127.9 L81.6,154 L79.3,154 L84.9,127.9 L87.2,127.9 Z M92.4,135.2 L88.3,154.1 L86,154.1 L90,135.2 L92.4,135.2 Z M94,127.9 L93.2,131.6 L90.9,131.6 L91.7,127.9 L94,127.9 Z M96,146.7 C96,147.6 96.1,148.3 96.3,149.1 C96.5,149.8 96.9,150.5 97.3,151 C97.8,151.5 98.3,151.9 99,152.2 C99.7,152.5 100.5,152.7 101.4,152.7 C102.9,152.7 104.2,152.3 105.3,151.4 C106.4,150.5 107.1,149.4 107.6,148 L109.9,148 C109.3,150.1 108.2,151.8 106.8,152.9 C105.4,154 103.5,154.6 101.3,154.6 C98.8,154.6 96.9,153.9 95.6,152.5 C94.3,151.1 93.6,149.1 93.6,146.6 C93.6,145.1 93.8,143.6 94.3,142.2 C94.8,140.8 95.4,139.5 96.3,138.4 C97.2,137.3 98.3,136.4 99.5,135.7 C100.8,135 102.2,134.7 103.8,134.7 C104.9,134.7 106,134.9 106.8,135.2 C107.7,135.6 108.4,136.1 109.1,136.7 C109.7,137.3 110.2,138.1 110.5,139 C110.8,139.9 111,140.9 111,142 L111,143.6 C111,144.1 110.9,144.7 110.9,145.2 L96.1,145.2 C96.1,145.7 96,146.2 96,146.7 Z M108.8,142.5 L108.8,141.8 C108.8,140.2 108.3,138.9 107.4,138 C106.5,137 105.2,136.6 103.6,136.6 C102.6,136.6 101.8,136.8 101,137.2 C100.2,137.6 99.5,138.1 98.9,138.7 C98.3,139.3 97.8,140 97.3,140.8 C96.9,141.6 96.6,142.4 96.4,143.3 L108.7,143.3 C108.8,143 108.8,142.8 108.8,142.5 Z M118,135.2 L117,139.6 L117.1,139.6 C117.8,138.2 118.7,137.1 119.8,136.3 C120.9,135.4 122.3,135 123.9,135 L125.1,135 L124.6,137.3 L123.2,137.3 C122.2,137.3 121.3,137.5 120.5,137.9 C119.7,138.3 119,138.8 118.4,139.5 C117.8,140.1 117.3,140.9 117,141.7 C116.6,142.5 116.3,143.4 116.1,144.3 L114,154.2 L111.7,154.2 L115.7,135.3 L118,135.3 L118,135.2 Z M0.6,112.1 L125.6,112.1 L125.6,113.5 L0.6,113.5 L0.6,112.1 Z" id="Shape" fill-rule="nonzero"></path>
        </g>
    </g>
</svg>