<svg xmlns="http://www.w3.org/2000/svg" width="77.11" height="79.48" viewBox="0 0 77.11 79.48"><defs><style>.pillar-create-cls-1{fill:#6b4fbb;}</style></defs><title>create</title><g id="Layer_2" data-name="Layer 2"><g id="icons"><path class="pillar-create-cls-1" d="M44.08,79.48C30.47,79,21.7,75.08,14.76,66.21a2.92,2.92,0,0,1-.21-3.3c3.26-5.48,3-9.94-.9-14.91a29.48,29.48,0,0,1-3.78-6l-.24-.5-.55.12a7.5,7.5,0,1,1,3.4-1.76l-.38.35.24.51,0,.06a26.42,26.42,0,0,0,3.46,5.51c4.55,5.8,5,11.43,1.29,17.72l-.24.41.3.38c6.29,7.9,13.88,11.37,26.18,12l1,.05-.34-1a7.22,7.22,0,0,1-.36-1.47A4.36,4.36,0,0,1,45.27,70a5.22,5.22,0,0,1,3.23-1.19,4.78,4.78,0,0,1,1.05.12c1.85.42,5.49,1.14,7.16,1.44a7.4,7.4,0,0,0,1.33.12,4.35,4.35,0,0,0,2.61-.74,2.68,2.68,0,0,0,1.19-3,19.42,19.42,0,0,1-.09-4.91,4.47,4.47,0,0,1,2.36-3.74l.59-.31-.27-.6a1.4,1.4,0,0,1,1.1-2,4.39,4.39,0,0,0,.56-.1l.88-.22-.44-.79a2.62,2.62,0,0,1-.33-1.65,2.89,2.89,0,0,1,1.31-2,6.85,6.85,0,0,1,4-1,2.86,2.86,0,0,0,2.59-1.29c.32-.65.2-1.11-.47-1.69a30.75,30.75,0,0,1-8.83-14.29,5.69,5.69,0,0,1,.37-4.85,3.53,3.53,0,0,0,.33-3C62.37,11.29,51,2.79,36.51,2.79A26.58,26.58,0,0,0,12.77,17.37a1.4,1.4,0,0,1-1.25.76,1.36,1.36,0,0,1-.63-.16,1.4,1.4,0,0,1-.61-1.88A29.36,29.36,0,0,1,36.51,0c15.8,0,28.27,9.34,31.76,23.79a6.25,6.25,0,0,1-.54,4.85,3,3,0,0,0-.21,2.78,27.64,27.64,0,0,0,8,13,4,4,0,0,1,1.13,5,5.59,5.59,0,0,1-5.1,2.85,7,7,0,0,0-1.68.15l-.84.21.39.78A2.75,2.75,0,0,1,69,56.6a4.1,4.1,0,0,1-1.15.86l-.33.17,0,.37c0,.07,0,.14,0,.22a3.07,3.07,0,0,1-1.79,2.18,1.87,1.87,0,0,0-1.1,1.74,16.28,16.28,0,0,0,.06,4.17A5.41,5.41,0,0,1,62.33,72,7.1,7.1,0,0,1,58,73.33a10.23,10.23,0,0,1-1.83-.17c-1.73-.31-5.37-1-7.28-1.47a1.81,1.81,0,0,0-.42,0,2.53,2.53,0,0,0-1.52.58c-.41.33-.66.75-.53,1.77a5,5,0,0,0,.41,1.38,2.93,2.93,0,0,1-2.69,4.11ZM7.47,29.5a4.8,4.8,0,1,0,4.8,4.8A4.81,4.81,0,0,0,7.47,29.5Z"/><path class="pillar-create-cls-1" d="M34.11,53.86a1,1,0,0,1-.39-.08,1.05,1.05,0,0,1-.64-1.16l2.68-14.85L27.33,39h-.15a1,1,0,0,1-.88-1.63L42.5,13a1,1,0,0,1,.88-.47,1,1,0,0,1,.39.08,1.05,1.05,0,0,1,.64,1.16L41.73,28.63l8.42-1.2h.15a1,1,0,0,1,.87,1.63L35,53.39A1,1,0,0,1,34.11,53.86ZM37,35.48a1,1,0,0,1,1,1.24l-1.44,8,1.27.51L48.12,29.84l-7.54,1.07h-.15a1.05,1.05,0,0,1-1-1.24l1.44-8-1.27-.51L29.36,36.57l7.54-1.07Z"/></g></g></svg>
