<svg xmlns="http://www.w3.org/2000/svg" width="72.48" height="92.93" viewBox="0 0 72.48 92.93"><defs><style>.pillar-scale-cls-1{fill:#6b4fbb;}</style></defs><title>Scale</title><g id="Layer_2" data-name="Layer 2"><g id="icons"><path class="pillar-scale-cls-1" d="M49.49,92.93a6.77,6.77,0,0,1-2-13.23l.42-.13V57.72H41.77a1.24,1.24,0,0,1-.93-2.07L55.58,39.07a1.3,1.3,0,0,1,1.86,0L72.17,55.65a1.24,1.24,0,0,1-.93,2.07H65.12V74.3H62.63V56.48a1.24,1.24,0,0,1,1.24-1.24h4.6l-12-13.47-12,13.47h4.6a1.24,1.24,0,0,1,1.24,1.24v23l.48.1a6.77,6.77,0,0,1-1.37,13.4Zm0-11.05a4.28,4.28,0,1,0,4.28,4.28A4.29,4.29,0,0,0,49.49,81.87Z"/><path class="pillar-scale-cls-1" d="M46.05,33.77V15.95a1.24,1.24,0,0,1,1.24-1.24h4.63L41.77,3.1,31.61,14.71h4.63a1.24,1.24,0,0,1,1.24,1.24v6.77H35V17.19H28.87a1.24,1.24,0,0,1-.93-2.06L40.83.4A1.3,1.3,0,0,1,42.7.4L55.6,15.13a1.24,1.24,0,0,1-.93,2.06H48.54V33.77Z"/><rect class="pillar-scale-cls-1" x="23.95" y="53.39" width="2.48" height="13.54"/><rect class="pillar-scale-cls-1" x="23.95" y="71.81" width="2.48" height="2.48"/><rect class="pillar-scale-cls-1" x="23.95" y="79.18" width="2.48" height="2.48"/><rect class="pillar-scale-cls-1" x="60.79" y="9.18" width="2.48" height="11.69"/><rect class="pillar-scale-cls-1" x="60.79" y="25.76" width="2.48" height="2.48"/><rect class="pillar-scale-cls-1" x="60.79" y="33.13" width="2.48" height="2.48"/><rect class="pillar-scale-cls-1" x="16.58" y="66.29" width="2.48" height="13.54"/><rect class="pillar-scale-cls-1" x="16.58" y="84.71" width="2.48" height="2.48"/><path class="pillar-scale-cls-1" d="M31.32,59.56V41.74a1.24,1.24,0,0,1,1.24-1.24h8.23L23.31,21.43,4.24,40.5h9.9a1.24,1.24,0,0,1,1.24,1.24V59.56H12.89V43H1.24a1.24,1.24,0,0,1-.88-2.12l22.1-22.1a1.31,1.31,0,0,1,.92-.36,1.24,1.24,0,0,1,.87.4L44.53,40.9A1.24,1.24,0,0,1,43.61,43H33.8V59.56Z"/></g></g></svg>
