<svg xmlns="http://www.w3.org/2000/svg" width="84.47" height="75.53" viewBox="0 0 84.47 75.53"><defs><style>.pillar-speed-cls-1{fill:#6b4fbb;}</style></defs><title>Speed</title><g id="Layer_2" data-name="Layer 2"><g id="icons"><path class="pillar-speed-cls-1" d="M50.35,75.53A33.93,33.93,0,0,1,31.69,70l-.45-.29-.4.35A8,8,0,1,1,33,67l-.22.54.49.31a31.51,31.51,0,1,0-6.67-47.15l-1,1.16H36.89v2.6H10.94v-2.6H22.39l.21-.29A34,34,0,0,1,48.39,7.35l.66,0V2.6H45.58V0h9.54V2.6H51.65V7.32l.66,0A33.94,33.94,0,0,1,70,13.58l.48.34L74,10.42,71.8,8.18l1.84-1.84,6.3,6.3-1.84,1.84-2.23-2.23-3.29,3.29.55.49A34.1,34.1,0,0,1,50.35,75.53Zm-24.81-17A5.43,5.43,0,1,0,31,64,5.44,5.44,0,0,0,25.54,58.58Z"/><path class="pillar-speed-cls-1" d="M40.81,49.11l3.91-3.91-.26-.46a6.76,6.76,0,0,1,9.21-9.21l.46.26,13-13L69,24.59l-13,13,.26.46A6.76,6.76,0,0,1,47,47.3L46.56,47,42.65,51Zm9.54-11.87a4.17,4.17,0,1,0,4.17,4.17A4.17,4.17,0,0,0,50.35,37.24Z"/><path class="pillar-speed-cls-1" d="M0,39.06v-2.6H16.6l.1-.59a34.2,34.2,0,0,1,1.95-7.09l2.4,1a31.33,31.33,0,0,0-1.68,5.83l-.15.83h6.74v2.6Z"/><path class="pillar-speed-cls-1" d="M7.29,51.83v-2.6h9.84L17,48.38A34.6,34.6,0,0,1,16.33,44l2.6-.14a31.84,31.84,0,0,0,.76,4.83l.13.54H31.42v2.6Z"/></g></g></svg>
